<svg width="490" height="139" viewBox="0 0 490 139" fill="none" xmlns="http://www.w3.org/2000/svg">
<path d="M206.846 102.092C203.449 102.092 200.203 101.364 197.109 99.908C194.076 98.3913 191.528 96.3893 189.465 93.902L194.743 89.261C198.444 93.3257 202.66 95.358 207.392 95.358C210.001 95.358 212.154 94.8423 213.853 93.811C215.552 92.719 216.401 91.2023 216.401 89.261C216.401 88.1083 216.098 87.077 215.491 86.167C214.945 85.257 213.974 84.4077 212.579 83.619C211.244 82.8303 210.092 82.2237 209.121 81.799C208.15 81.3137 206.634 80.6767 204.571 79.888C202.144 78.9173 200.203 78.068 198.747 77.34C197.352 76.612 195.865 75.6717 194.288 74.519C192.771 73.3663 191.649 72.062 190.921 70.606C190.254 69.15 189.92 67.4513 189.92 65.51C189.92 61.87 191.437 58.958 194.47 56.774C197.564 54.5293 201.477 53.407 206.209 53.407C212.882 53.407 218.312 55.8033 222.498 60.596L217.311 64.873C213.914 61.7183 210.152 60.141 206.027 60.141C203.297 60.141 201.113 60.6263 199.475 61.597C197.898 62.5677 197.109 63.872 197.109 65.51C197.109 67.2693 197.928 68.695 199.566 69.787C201.265 70.879 203.843 72.0923 207.301 73.427C207.604 73.5483 207.847 73.6393 208.029 73.7C210.152 74.5493 211.669 75.1863 212.579 75.611C213.55 75.975 214.884 76.6423 216.583 77.613C218.342 78.5837 219.616 79.524 220.405 80.434C221.194 81.344 221.922 82.5573 222.589 84.074C223.256 85.53 223.59 87.168 223.59 88.988C223.59 93.0527 222.073 96.268 219.04 98.634C216.067 100.939 212.003 102.092 206.846 102.092ZM272.567 95.54C268.624 99.908 263.346 102.092 256.733 102.092C250.121 102.092 244.843 99.9383 240.899 95.631C236.956 91.3237 234.984 85.3783 234.984 77.795C234.984 70.2723 236.956 64.327 240.899 59.959C244.843 55.591 250.121 53.407 256.733 53.407C263.407 53.407 268.685 55.5607 272.567 59.868C276.511 64.1753 278.482 70.1207 278.482 77.704C278.482 85.2267 276.511 91.172 272.567 95.54ZM256.733 94.903C261.101 94.903 264.499 93.3863 266.925 90.353C269.352 87.259 270.565 83.0427 270.565 77.704C270.565 72.3047 269.382 68.0883 267.016 65.055C264.65 62.0217 261.223 60.505 256.733 60.505C252.244 60.505 248.816 62.0217 246.45 65.055C244.084 68.0277 242.901 72.2743 242.901 77.795C242.901 83.1337 244.084 87.3197 246.45 90.353C248.877 93.3863 252.305 94.903 256.733 94.903ZM309.259 102.092C303.193 102.092 298.4 99.9687 294.881 95.722C291.363 91.4147 289.603 85.439 289.603 77.795C289.603 70.151 291.393 64.1753 294.972 59.868C298.552 55.5607 303.496 53.407 309.805 53.407C318.238 53.407 323.819 56.9863 326.549 64.145L319.36 66.784C317.54 62.598 314.325 60.505 309.714 60.505C305.589 60.505 302.525 62.0217 300.523 65.055C298.521 68.0883 297.52 72.335 297.52 77.795C297.52 83.255 298.521 87.4713 300.523 90.444C302.525 93.4167 305.528 94.903 309.532 94.903C314.81 94.903 318.268 92.5673 319.906 87.896L327.004 90.444C325.791 94.1447 323.637 97.0263 320.543 99.089C317.449 101.091 313.688 102.092 309.259 102.092ZM372.433 101L358.055 72.699L349.774 81.162V101H342.039V39.029L349.774 35.298V72.335L366.7 54.499H375.8L363.515 67.057L380.896 101H372.433ZM430.783 75.702C430.783 77.704 430.692 79.4027 430.51 80.798H398.023C398.629 85.2873 400.085 88.806 402.391 91.354C404.757 93.8413 407.82 95.085 411.582 95.085C415.525 95.085 419.135 93.7503 422.411 91.081L426.779 96.177C422.411 100.12 417.254 102.092 411.309 102.092C404.817 102.092 399.63 99.7867 395.748 95.176C391.926 90.5653 390.015 84.7413 390.015 77.704C390.015 70.1207 391.926 64.1753 395.748 59.868C399.63 55.5607 404.817 53.407 411.309 53.407C417.011 53.407 421.683 55.2877 425.323 59.049C428.963 62.8103 430.783 68.3613 430.783 75.702ZM397.841 74.064H423.048C422.926 69.15 421.713 65.6313 419.408 63.508C417.102 61.3847 414.403 60.323 411.309 60.323C407.183 60.323 403.968 61.5363 401.663 63.963C399.418 66.3897 398.144 69.7567 397.841 74.064ZM466.11 102.092C458.223 102.092 454.28 98.2093 454.28 90.444V61.415H443.633V54.499H454.28V39.12L462.015 35.298V54.499H477.667V61.415H462.015V87.987C462.015 90.2923 462.47 92.0517 463.38 93.265C464.351 94.4177 466.14 94.994 468.749 94.994C471.6 94.994 474.452 94.1447 477.303 92.446L476.393 99.999C473.724 101.394 470.296 102.092 466.11 102.092Z" fill="#555555"/>
<path d="M5 14C2.23858 14 0.0925709 16.2367 0.206763 18.9957L3.92849 108.919C4.04268 111.678 6.37383 113.914 9.13525 113.914H177.135C179.897 113.914 182.043 111.678 181.928 108.919L179.137 41.4765H191.637C193.57 41.4765 195.072 39.9108 194.992 37.9795C194.913 36.0481 193.281 34.4825 191.348 34.4825H170.348C168.415 34.4825 166.783 32.9168 166.703 30.9855C166.623 29.0541 168.125 27.4885 170.058 27.4885H191.058C192.991 27.4885 194.493 25.9228 194.414 23.9914C194.334 22.0601 192.702 20.4944 190.769 20.4944H178.269L178.207 18.9957C178.093 16.2367 175.761 14 173 14H5Z" fill="url(#paint0_linear)"/>
<path d="M31.936 102.092C22.9573 102.092 16.8603 98.2093 13.645 90.444L20.106 87.168C21.38 89.898 22.836 91.8697 24.474 93.083C26.1727 94.2357 28.6903 94.812 32.027 94.812C35.4243 94.812 38.2757 93.7503 40.581 91.627C42.8863 89.443 44.039 85.8637 44.039 80.889V37.3H51.865V80.343C51.865 83.7403 51.4403 86.7433 50.591 89.352C49.7417 91.9607 48.6497 94.0537 47.315 95.631C46.041 97.2083 44.494 98.5127 42.674 99.544C40.9147 100.515 39.1553 101.182 37.396 101.546C35.6367 101.91 33.8167 102.092 31.936 102.092ZM81.4592 102.092C76.4239 102.092 72.3895 100.757 69.3562 98.088C66.3229 95.358 64.8062 91.4753 64.8062 86.44C64.8062 81.4047 66.5049 77.5827 69.9022 74.974C73.3602 72.3653 77.6069 71.061 82.6422 71.061C87.2529 71.061 91.4389 72.062 95.2002 74.064V70.515C95.2002 63.599 91.9242 60.141 85.3722 60.141C80.5795 60.141 75.6655 61.779 70.6302 65.055L68.3552 58.594C73.9365 55.136 79.8515 53.407 86.1002 53.407C88.1022 53.407 89.9829 53.6497 91.7422 54.135C93.5015 54.5597 95.2305 55.3483 96.9292 56.501C98.6885 57.593 100.054 59.2917 101.024 61.597C102.056 63.9023 102.571 66.693 102.571 69.969V101H95.2002V96.723C91.3175 100.302 86.7372 102.092 81.4592 102.092ZM82.4602 95.358C87.3135 95.358 91.5602 93.2347 95.2002 88.988V80.98C91.6209 78.796 87.7382 77.704 83.5522 77.704C80.2762 77.704 77.5462 78.4623 75.3622 79.979C73.1782 81.435 72.0862 83.5887 72.0862 86.44C72.0862 89.1093 72.9962 91.263 74.8162 92.901C76.6362 94.539 79.1842 95.358 82.4602 95.358ZM152.731 53.407C156.614 53.407 159.465 54.681 161.285 57.229C163.166 59.777 164.106 63.872 164.106 69.514V101H156.553V72.517C156.553 68.2703 156.189 65.237 155.461 63.417C154.733 61.597 153.277 60.687 151.093 60.687C148.849 60.687 147.18 61.8093 146.088 64.054C144.996 66.2987 144.45 69.2713 144.45 72.972V101H136.897V71.698C136.897 68.1793 136.533 65.4797 135.805 63.599C135.138 61.6577 133.773 60.687 131.71 60.687C129.466 60.687 127.737 61.8397 126.523 64.145C125.31 66.3897 124.703 69.332 124.703 72.972V101H117.15V54.499H124.248V60.505C126.068 55.773 129.071 53.407 133.257 53.407C135.563 53.407 137.504 54.1047 139.081 55.5C140.659 56.8953 141.751 58.5637 142.357 60.505C144.966 55.773 148.424 53.407 152.731 53.407Z" fill="white"/>
<g style="mix-blend-mode:lighten">
<path d="M178.066 18H0.264862C0.632362 15.718 2.57982 14 4.99999 14H173C175.42 14 177.51 15.718 178.066 18Z" fill="white" fill-opacity="0.21"/>
</g>
<g style="mix-blend-mode:luminosity">
<path d="M181.856 110H4.09067C4.67785 112.239 6.74542 113.914 9.13525 113.914H177.135C179.525 113.914 181.454 112.239 181.856 110Z" fill="black" fill-opacity="0.17"/>
</g>
<defs>
<linearGradient id="paint0_linear" x1="85.5001" y1="14" x2="85.5001" y2="113.914" gradientUnits="userSpaceOnUse">
<stop stop-color="#A80298"/>
<stop offset="1" stop-color="#8D2482"/>
</linearGradient>
</defs>
</svg>
